<svg width="216" height="118" viewBox="0 0 216 118" fill="none" xmlns="http://www.w3.org/2000/svg">
<rect width="216" height="118" rx="20" fill="#2DF8C5"/>
<mask id="mask0_499_139" style="mask-type:alpha" maskUnits="userSpaceOnUse" x="43" y="40" width="131" height="38">
<g clip-path="url(#clip0_499_139)">
<path fill-rule="evenodd" clip-rule="evenodd" d="M161.93 43.1074C156.583 43.1074 153.562 44.1584 151.828 46.6212C150.016 49.1935 149.652 53.254 149.652 58.9729C149.652 70.1994 151.358 74.8923 161.93 74.8923C163.2 74.8923 167.541 74.8677 170.075 74.5528C171.061 74.3865 171.502 73.6178 171.502 72.9301V71.6902C171.502 70.7254 170.786 69.9973 169.836 69.9973H161.93C155.965 69.9973 154.889 68.566 154.736 60.4284V57.7941C154.787 49.4667 155.863 48.0024 161.93 48.0024C167.525 48.0024 168.598 49.3019 168.784 56.6331H159.894V61.5825H171.587C173.89 61.5825 173.89 59.9428 173.89 59.4044V57.8242C173.723 46.4084 171.04 43.1074 161.93 43.1074ZM146.534 43.5438L146.407 43.5096C145.318 43.2766 142.342 43.1074 140.866 43.1074C135.645 43.1074 132.885 45.3328 132.885 49.5429V72.9837C132.885 73.9485 133.549 74.6227 134.499 74.6227H136.356C137.307 74.6227 137.97 73.9489 137.97 72.9837V49.9733C137.97 48.9343 138.228 48.0024 141.344 48.0024L145.957 47.9985C146.409 48.0533 146.84 47.9262 147.172 47.6399C147.534 47.3291 147.733 46.8753 147.733 46.3635V45.1776C147.733 44.3994 147.296 43.8038 146.534 43.5438ZM124.235 43.485H122.378C121.428 43.485 120.764 44.1588 120.764 45.124V69.9977H113.04C108.262 69.9977 106.323 69.6884 106.323 61.9367V45.124C106.323 44.1592 105.66 43.485 104.71 43.485H102.905C101.955 43.485 101.238 44.1893 101.238 45.124V61.9367C101.238 72.9536 105.164 74.8923 113.411 74.8923C116.378 74.8923 120.441 74.8923 124.316 74.3368L124.406 74.3186C125.363 74.0752 125.849 73.5174 125.849 72.6606V45.124C125.849 44.1592 125.185 43.485 124.235 43.485Z" fill="#272727"/>
<path fill-rule="evenodd" clip-rule="evenodd" d="M95.5084 44.2555C95.2701 43.7393 94.7588 43.4316 94.141 43.4316H91.7536C91.0602 43.4316 90.5418 43.7159 90.2688 44.2277L86.7305 49.4904L89.8281 53.8025L95.2362 45.9056C95.8298 45.1714 95.6243 44.5068 95.5084 44.2555Z" fill="#74BB11"/>
<path fill-rule="evenodd" clip-rule="evenodd" d="M76.8544 44.1681L76.8512 44.1634C76.3118 43.4316 75.5942 43.4316 75.3582 43.4316H73.0231C72.4248 43.4316 71.9349 43.7115 71.6791 44.1987C71.4158 44.6978 71.4716 45.2973 71.8359 45.8527L80.4863 58.0599L70.539 72.1832C70.1915 72.7144 70.1428 73.3048 70.4053 73.8035C70.6627 74.2906 71.1529 74.5697 71.7501 74.5697H74.137C74.7509 74.5697 75.2907 74.2454 75.5606 73.7344L86.6947 58.1163L76.8544 44.1681Z" fill="#009CD9"/>
<path fill-rule="evenodd" clip-rule="evenodd" d="M96.696 72.3069L89.7559 62.6113L86.7031 66.8953L92.1916 74.352L92.3343 74.4155C92.5521 74.5152 92.7879 74.5676 93.0266 74.5696H95.361C95.9249 74.5696 96.4035 74.3147 96.6746 73.8692C96.9523 73.4126 96.9601 72.8437 96.696 72.3069Z" fill="#EB2084"/>
<path fill-rule="evenodd" clip-rule="evenodd" d="M61.3582 61.367V69.6006C58.9946 69.9699 55.3919 70.0517 54.1641 70.0517C48.7326 70.0517 48.1374 68.5409 48.1374 65.3325C48.1374 62.3302 49.2412 61.3666 52.6785 61.3666L61.3582 61.367ZM53.8989 43.1074C52.2206 43.1074 49.932 43.1519 47.0844 43.5005L46.9557 43.5295C46.1261 43.7697 45.706 44.3243 45.706 45.1779V46.3635C45.706 47.3743 46.3242 48.0024 47.3196 48.0024H53.8993C59.1971 48.0024 61.3582 49.4635 61.3582 53.0452V56.5259H52.6785C45.8948 56.5259 43 59.1595 43 65.3321C43 72.2119 45.9962 74.8927 53.6867 74.8927C56.8019 74.8927 62.5361 74.6461 64.6555 73.9882C66.4426 73.4832 66.4426 72.0936 66.4426 71.637V52.7224C66.4426 46.2527 62.3395 43.1074 53.8993 43.1074H53.8989Z" fill="#272727"/>
</g>
</mask>
<g mask="url(#mask0_499_139)">
<rect x="16.2578" y="24.5176" width="185.97" height="70.4983" fill="black"/>
</g>
<defs>
<clipPath id="clip0_499_139">
<rect width="130.889" height="38" fill="white" transform="translate(43 40)"/>
</clipPath>
</defs>
</svg>
