<svg width="216" height="118" viewBox="0 0 216 118" fill="none" xmlns="http://www.w3.org/2000/svg">
<rect width="216" height="118" rx="20" fill="#2DF8C5"/>
<mask id="mask0_499_140" style="mask-type:alpha" maskUnits="userSpaceOnUse" x="48" y="40" width="120" height="38">
<g clip-path="url(#clip0_499_140)">
<path d="M65.6459 63.9693C66.3443 63.2093 66.9845 62.5663 67.5082 62.0401L68.905 60.637C69.3124 60.2278 69.7198 59.877 70.069 59.5847C70.4182 59.2924 70.7674 58.9417 71.1748 58.6493C71.9895 57.9478 72.6297 57.4801 73.1535 57.1878C73.6773 56.8955 74.2011 56.7786 74.6667 56.7786C75.3651 56.7786 75.947 57.0124 76.529 57.5386C77.0528 58.0647 77.3438 58.6493 77.3438 59.2924C77.3438 59.7601 77.2274 60.2863 76.9364 60.754C76.6454 61.2801 76.1798 61.9817 75.5397 62.8586C72.3969 67.0093 70.8256 69.6401 70.8256 70.8678C70.8256 71.394 71.0584 71.6863 71.6404 71.6863C72.0477 71.6863 72.5133 71.5109 72.9789 71.1601C73.4445 70.8093 74.0847 70.2247 74.8413 69.3478C75.2487 68.8801 75.7143 68.2955 76.2962 67.5355C76.8782 66.7755 77.402 66.074 77.8676 65.4309C78.3332 64.7878 78.6824 64.3201 78.9734 64.0863C79.2644 63.8524 79.6136 63.7355 80.021 63.7355C80.4283 63.7355 80.7775 63.8524 81.0685 64.1447C81.3595 64.437 81.4759 64.7878 81.4759 65.197C81.4759 65.957 81.1267 67.0093 80.4283 68.2955C79.73 69.5817 78.7988 70.8678 77.693 72.2124C76.2962 73.9078 74.8413 75.2524 73.3863 76.1878C71.9313 77.1232 70.5928 77.5909 69.3706 77.5909C68.2648 77.5909 67.3337 77.2401 66.5771 76.4801C65.8205 75.7201 65.4713 74.7847 65.4713 73.6155C65.4713 73.0309 65.5295 72.4463 65.6459 71.8617C65.7623 71.3355 65.8787 70.7509 66.1115 70.1663C66.2861 69.5817 66.5771 68.9386 66.9845 68.2955C67.3919 67.6524 67.7992 66.8924 68.3812 66.074C68.4394 66.0155 68.4976 65.8401 68.6722 65.6063C67.6246 66.4247 66.5771 67.4186 65.5295 68.7047C64.4819 69.9324 63.4343 71.5109 62.3868 73.4986C61.6302 74.7847 61.0482 75.6617 60.6408 76.0709C60.2334 76.4801 59.7096 76.714 59.1277 76.714C58.4875 76.714 57.9637 76.4801 57.4981 76.0124C57.0907 75.5447 56.8579 74.9601 56.8579 74.2586C56.8579 73.7909 56.9161 73.3817 57.0325 72.9724C57.1489 72.5632 57.3235 71.9786 57.6727 71.2186C57.8473 70.634 58.1383 70.0493 58.4875 69.3478C58.8367 68.7047 59.0695 68.1786 59.3604 67.7693L60.5244 65.7817C60.5826 65.7232 60.699 65.4893 60.8736 65.197C60.0588 65.8401 59.3022 66.6001 58.4875 67.4186C57.6145 68.0617 56.8579 68.8801 56.1595 69.8155C55.4611 70.6924 54.821 71.6278 54.2972 72.5047C53.7734 73.4401 53.3078 74.317 52.9586 75.1355C52.4348 76.2463 51.9692 77.0063 51.62 77.4155C51.2126 77.8247 50.7471 78.0001 50.1651 78.0001C49.5831 78.0001 49.0011 77.7663 48.5937 77.2401C48.1863 76.7724 48.0117 76.1293 48.0117 75.3693C48.0117 73.8493 48.7683 71.1601 50.2233 67.4186C51.0962 65.2555 51.9692 63.2678 52.9586 61.4555C53.948 59.6432 54.9374 58.0647 55.8685 56.7786C56.4505 56.077 56.9161 55.5509 57.3235 55.2001C57.7309 54.9078 58.1965 54.7324 58.6621 54.7324C59.1859 54.7324 59.6514 54.9078 60.0006 55.2586C60.408 55.6093 60.5826 56.077 60.5826 56.6032C60.5826 57.0124 60.4662 57.4217 60.2916 57.8893C60.117 58.357 59.6514 59.117 59.0113 60.2278C58.8949 60.4032 58.7203 60.754 58.4875 61.1632C58.2547 61.5724 57.9637 62.0986 57.5563 62.8001L56.9161 64.1447C58.1383 62.6832 59.1859 61.4555 60.117 60.4617C61.0482 59.4678 61.8048 58.6493 62.5032 58.0063C63.2016 57.4217 63.7835 56.954 64.3655 56.6617C64.8893 56.3693 65.4131 56.2524 65.8205 56.2524C66.4025 56.2524 66.8681 56.4278 67.2755 56.837C67.6828 57.2463 67.8574 57.714 67.8574 58.2401C67.8574 58.5909 67.7992 59.0001 67.6246 59.4678C67.4501 59.9355 67.1009 60.5786 66.5771 61.514L65.2967 63.8524L64.8893 64.7293L65.6459 63.9693Z" fill="#27AAE1"/>
<path d="M80.8329 75.4859C79.7271 75.4859 78.7377 75.0182 78.0394 74.1413C77.2828 73.2643 76.9336 72.0951 76.9336 70.692C76.9336 69.172 77.2828 67.4766 78.0394 65.6059C78.7377 63.7351 79.7271 61.9813 81.0075 60.3443C82.4043 58.4151 83.8592 57.012 85.3724 56.0182C86.8856 55.0243 88.3405 54.5566 89.7373 54.5566C91.0177 54.5566 92.0652 54.9659 92.88 55.7843C93.6948 56.6028 94.1022 57.7136 94.1022 59.0582C94.1022 59.5259 94.044 59.9936 93.9276 60.3443C93.8112 60.7536 93.6948 61.1628 93.462 61.6889C93.8694 62.0397 94.1022 62.2736 94.2768 62.5074C94.3932 62.6828 94.4514 62.9166 94.4514 63.1505C94.4514 63.3259 94.3932 63.5597 94.335 63.7351C94.2768 63.9105 94.044 64.2028 93.753 64.612C93.171 65.4305 92.6472 66.1905 92.298 66.9505C91.9488 67.652 91.7742 68.2951 91.7742 68.7043C91.7742 69.3474 92.1234 69.6982 92.8218 69.6982C93.4038 69.6982 94.1022 69.3474 94.917 68.5874C95.7317 67.8859 96.6629 66.6582 97.8269 65.0797C98.5253 64.0859 99.2237 63.6182 99.8638 63.6182C100.329 63.6182 100.679 63.7351 100.911 64.0274C101.144 64.3197 101.319 64.6705 101.319 65.1382C101.319 65.8397 100.97 66.7166 100.329 67.8274C99.6892 68.9382 98.8163 70.0489 97.6523 71.2182C95.0334 73.9659 92.5308 75.3689 90.1447 75.3689C89.2717 75.3689 88.5151 75.0766 87.9331 74.4336C87.3511 73.7905 87.002 73.0305 87.002 72.1536V71.6274C85.0232 74.1413 82.9862 75.4859 80.8329 75.4859ZM86.5946 66.9505C86.4782 66.5997 86.42 66.3659 86.42 66.3074C86.42 66.0736 86.5364 65.8397 86.711 65.6643L87.7003 64.612C88.1659 64.1443 88.6315 63.5013 88.9807 62.7997C89.3881 62.0982 89.5627 61.5136 89.5627 61.1043C89.5627 60.4613 89.2135 60.1105 88.5733 60.1105C88.0495 60.1105 87.4093 60.4028 86.6528 60.9874C85.8962 61.572 85.1978 62.332 84.4994 63.3259C83.8592 64.2613 83.3354 65.2551 82.8699 66.2489C82.4625 67.2428 82.2297 68.0613 82.2297 68.6459C82.2297 69.3474 82.5207 69.6982 83.1608 69.6982C83.6264 69.6982 84.0338 69.5228 84.4994 69.2305C84.965 68.8797 85.4888 68.2951 86.1872 67.4766C86.3036 67.3013 86.42 67.1259 86.5946 66.9505Z" fill="#27AAE1"/>
<path d="M107.663 64.9038C106.15 65.9561 104.695 67.2422 103.357 68.7038C102.018 70.1653 100.971 71.6853 100.272 73.1468L98.9336 75.953C98.5844 76.5961 98.2934 77.0638 97.8861 77.2976C97.5369 77.5315 97.0713 77.7068 96.4893 77.7068C95.8491 77.7068 95.3253 77.5315 94.9179 77.1222C94.5105 76.713 94.3359 76.2453 94.3359 75.5438C94.3359 75.0176 94.4523 74.2576 94.7433 73.3222C95.0343 72.3868 95.3835 71.3345 95.7909 70.1653C96.2565 68.9961 96.7221 67.8268 97.3623 66.5991C97.9443 65.3715 98.5844 64.2022 99.2246 63.0915C99.8066 62.0976 100.389 61.1622 101.029 60.2853C101.669 59.3499 102.193 58.6484 102.717 58.1807C103.531 57.3038 104.346 56.8945 105.219 56.8945C105.801 56.8945 106.267 57.0699 106.674 57.4207C107.081 57.7715 107.256 58.2391 107.256 58.7068C107.256 59.1161 107.14 59.4668 106.965 59.8176C106.79 60.1684 106.325 60.6945 105.685 61.513C105.103 62.1561 104.579 62.8576 104.113 63.6176C103.648 64.3776 103.182 65.1376 102.949 65.7222L103.357 65.2545C104.462 64.0268 105.452 62.9161 106.441 62.0976C107.431 61.2207 108.478 60.3438 109.7 59.4084C110.806 58.5899 111.679 58.0053 112.261 57.713C112.843 57.3622 113.309 57.2453 113.774 57.2453C114.24 57.2453 114.705 57.4207 115.055 57.8299C115.462 58.2391 115.637 58.7068 115.637 59.1745C115.637 59.6422 115.52 60.1099 115.229 60.4607C114.938 60.8699 114.414 61.2791 113.716 61.7468C113.018 62.273 112.494 62.7407 112.028 63.2084C111.621 63.6761 111.388 64.0268 111.388 64.2607C111.388 64.6115 111.563 64.7284 111.97 64.7284C112.261 64.7284 112.668 64.553 113.192 64.2607C113.716 63.9099 114.356 63.5007 115.055 62.9161C115.637 62.4484 116.044 62.1561 116.277 62.0391C116.51 61.9222 116.742 61.8053 116.975 61.8053C117.441 61.8053 117.79 61.9807 118.081 62.273C118.372 62.5653 118.488 62.9745 118.488 63.3838C118.488 64.0268 118.197 64.7284 117.674 65.4884C117.15 66.2484 116.335 66.9499 115.346 67.6515C113.367 69.0545 111.505 69.6976 109.817 69.6976C108.944 69.6976 108.187 69.4638 107.605 68.9961C107.023 68.5284 106.732 67.9438 106.732 67.1838C106.849 66.4822 107.14 65.7222 107.663 64.9038Z" fill="#27AAE1"/>
<path d="M127.334 68.0606C125.704 70.7499 124.016 72.9129 122.212 74.4329C120.408 75.9529 118.662 76.7714 117.091 76.7714C115.985 76.7714 114.996 76.3622 114.297 75.4852C113.541 74.6083 113.191 73.556 113.191 72.2114C113.191 71.276 113.366 70.2237 113.715 68.996C114.064 67.8268 114.53 66.5406 115.17 65.1375L117.207 60.8699C117.556 60.2852 117.789 59.7006 118.08 59.116L118.778 57.3622C119.128 56.4852 119.477 55.9006 119.826 55.6083C120.233 55.2575 120.699 55.1406 121.223 55.1406C121.805 55.1406 122.27 55.316 122.678 55.7252C123.085 56.1345 123.26 56.6606 123.26 57.3037C123.26 57.8883 123.143 58.5899 122.852 59.4668C122.561 60.3437 122.212 61.2206 121.805 62.0391L120.233 65.1375C119.768 66.0145 119.36 66.9499 119.011 67.8268C118.662 68.7037 118.546 69.4052 118.546 69.8145C118.546 70.0483 118.604 70.2822 118.778 70.4575C118.895 70.6329 119.069 70.7499 119.302 70.7499C119.71 70.7499 120.175 70.516 120.641 70.0483C121.165 69.5806 121.805 68.8206 122.62 67.7099C123.202 67.0083 123.667 66.3652 124.016 65.7806C124.366 65.196 124.657 64.7283 124.889 64.2022C124.831 63.7345 124.773 63.3837 124.773 63.1499V62.4483C124.773 61.5714 124.889 60.7529 125.122 59.9345C125.355 59.116 125.704 58.356 126.111 57.7714C126.519 57.1283 126.984 56.6022 127.45 56.1929C127.974 55.7837 128.498 55.6083 129.021 55.6083C129.603 55.6083 130.011 55.9006 130.36 56.4268C130.709 56.9529 130.826 57.596 130.826 58.4145C130.826 59.2914 130.709 60.2268 130.476 61.2206C130.244 62.2145 129.894 63.0914 129.429 63.8514C129.603 63.9099 129.836 63.9099 130.011 63.9099C130.709 63.9099 131.524 63.5591 132.339 62.916C132.746 62.5652 133.037 62.3314 133.328 62.156C133.619 61.9806 133.736 61.8052 133.91 61.7468C134.027 61.6299 134.143 61.5714 134.259 61.5714C134.376 61.5714 134.492 61.5129 134.667 61.5129C135.016 61.5129 135.365 61.6883 135.656 61.9806C135.947 62.2729 136.122 62.6237 136.122 63.0329C136.122 63.6175 135.947 64.2606 135.54 64.9037C135.132 65.5468 134.608 66.1314 133.968 66.6575C133.328 67.1837 132.63 67.5929 131.873 67.9437C131.117 68.2945 130.36 68.4114 129.662 68.4114C129.312 68.4114 128.963 68.3529 128.614 68.2945C128.148 68.3529 127.799 68.236 127.334 68.0606Z" fill="#27AAE1"/>
<path d="M134.784 68.5286C134.61 68.8209 134.493 69.0547 134.435 69.2301C134.377 69.4055 134.319 69.6393 134.319 69.8732C134.319 70.5747 134.552 71.1009 134.959 71.4517C135.366 71.8024 135.948 71.9778 136.705 71.9778C137.811 71.9778 139.091 71.5101 140.546 70.5163C142.001 69.5224 143.281 68.3532 144.387 66.8917L145.667 65.1963C146.133 64.6117 146.657 64.2609 147.181 64.2609C147.646 64.2609 147.995 64.4363 148.286 64.7286C148.577 65.0793 148.752 65.4886 148.752 66.0147C148.752 66.7163 148.461 67.5932 147.879 68.587C147.297 69.5809 146.482 70.6332 145.435 71.744C143.922 73.3809 142.234 74.6086 140.488 75.544C138.684 76.4793 137.054 76.8886 135.483 76.8886C133.679 76.8886 132.282 76.304 131.176 75.1347C130.07 73.9655 129.488 72.504 129.488 70.6917C129.488 68.9378 129.896 67.184 130.652 65.3132C131.409 63.5009 132.398 61.8055 133.62 60.344C134.843 58.824 136.181 57.5963 137.636 56.6609C139.091 55.7255 140.546 55.2578 141.943 55.2578C143.107 55.2578 144.038 55.667 144.795 56.427C145.493 57.187 145.9 58.1809 145.9 59.4086C145.9 60.5778 145.609 61.747 145.086 62.8578C144.562 63.9686 143.863 65.0209 142.99 65.8978C142.117 66.7747 141.128 67.5347 140.022 68.0609C138.916 68.587 137.752 68.8794 136.589 68.8794C136.239 68.8794 136.007 68.8209 135.774 68.7624C135.425 68.6455 135.134 68.587 134.784 68.5286ZM136.589 64.2024C136.763 64.2609 136.879 64.2609 136.996 64.3193C137.112 64.3193 137.229 64.3778 137.403 64.3778C137.869 64.3778 138.276 64.2609 138.742 64.0855C139.207 63.9101 139.615 63.6178 140.022 63.267C140.43 62.9163 140.721 62.5655 140.953 62.1563C141.186 61.747 141.303 61.3378 141.303 60.9286C141.303 60.4609 141.128 60.227 140.721 60.227C140.255 60.227 139.615 60.6363 138.8 61.4547C137.985 62.1563 137.229 63.0917 136.589 64.2024Z" fill="#27AAE1"/>
<path d="M149.975 69.1137C149.917 69.1722 149.917 69.2891 149.917 69.406V69.6399C149.917 70.1076 150.091 70.5168 150.441 70.8676C150.79 71.2183 151.197 71.3937 151.605 71.3937C153.001 71.3937 155.155 69.5814 157.948 65.9568L158.996 64.7291C159.694 63.8522 160.393 63.3845 160.975 63.3845C161.382 63.3845 161.673 63.5014 161.964 63.7937C162.197 64.086 162.313 64.4368 162.313 64.9045C162.313 65.2552 162.197 65.7229 161.964 66.2491C161.731 66.7753 161.44 67.4183 161.033 68.0614C160.625 68.7045 160.16 69.406 159.636 70.1076C159.112 70.8091 158.53 71.5106 157.89 72.1537C154.922 75.2522 152.128 76.8306 149.626 76.8306C148.113 76.8306 146.89 76.3045 145.959 75.3106C145.028 74.3168 144.562 72.9137 144.562 71.1599C144.562 69.8737 144.737 68.4706 145.144 67.0676C145.552 65.606 146.25 63.8522 147.181 61.6891C147.88 60.1106 148.695 58.4737 149.684 56.7199C150.673 55.0245 151.663 53.3291 152.71 51.6922C153.758 50.0553 154.805 48.5353 155.911 47.1322C156.959 45.7291 158.006 44.5599 158.879 43.6245C160.16 42.3383 161.324 41.4029 162.313 40.8183C163.302 40.2337 164.234 39.9414 165.048 39.9414C165.805 39.9414 166.445 40.2337 166.853 40.8183C167.318 41.4029 167.493 42.1629 167.493 43.0399C167.493 43.9753 167.318 45.0276 167.027 46.2553C166.678 47.4829 166.271 48.7691 165.689 50.1137C165.107 51.4583 164.408 52.8029 163.593 54.2645C162.779 55.6676 161.906 57.0706 160.858 58.4737C159.345 60.5199 157.715 62.3906 155.969 64.086C154.282 65.7229 152.303 67.4183 149.975 69.1137ZM151.779 63.1506C153.06 61.9229 154.223 60.7537 155.155 59.7014C156.144 58.5906 157.075 57.3629 158.065 55.9599C158.705 55.0829 159.287 54.1476 159.869 53.2122C160.451 52.2768 160.916 51.3414 161.324 50.4645C161.731 49.5876 162.08 48.8276 162.371 48.126C162.604 47.4829 162.779 46.9568 162.779 46.5476C162.779 46.1968 162.662 46.0214 162.371 46.0214C161.964 46.0214 161.382 46.4891 160.567 47.4829C159.752 48.4768 158.821 49.8799 157.715 51.6922C157.25 52.3937 156.842 53.0953 156.435 53.7968C156.028 54.4983 155.446 55.6091 154.747 56.9537C154.282 57.7722 153.932 58.4737 153.641 59.0583C153.35 59.6429 153.06 60.1691 152.827 60.6368C152.594 61.1045 152.419 61.5137 152.245 61.9229C152.128 62.3322 151.954 62.7414 151.779 63.1506Z" fill="#27AAE1"/>
</g>
</mask>
<g mask="url(#mask0_499_140)">
<rect x="22.0469" y="27.0234" width="172.362" height="65.3399" fill="black"/>
</g>
<defs>
<clipPath id="clip0_499_140">
<rect width="119.561" height="38" fill="white" transform="translate(48 40)"/>
</clipPath>
</defs>
</svg>
