<svg width="216" height="118" viewBox="0 0 216 118" fill="none" xmlns="http://www.w3.org/2000/svg">
<rect width="216" height="118" rx="20" fill="#2DF8C5"/>
<mask id="mask0_499_193" style="mask-type:alpha" maskUnits="userSpaceOnUse" x="61" y="40" width="95" height="38">
<g clip-path="url(#clip0_499_193)">
<path d="M65.4775 39.9531V66.5688C65.4775 67.7103 65.4775 68.8519 65.5715 69.8996C65.6654 70.9474 65.8533 71.9013 66.1351 72.6519C66.5108 73.4181 66.9962 73.9811 67.7477 74.4659C68.4209 74.935 69.4543 75.1383 70.8007 75.1383C72.8987 75.1383 74.4174 74.4659 75.1845 73.2305C75.9517 71.9951 76.4214 69.8058 76.4214 66.8659V39.9688H80.6017V66.5844C80.6017 67.2568 80.6017 68.0075 80.5077 68.9614C80.5077 69.8214 80.3198 70.7754 80.2259 71.6198C80.038 72.4799 79.7562 73.4338 79.3648 74.2782C78.989 75.1383 78.4097 75.8889 77.6582 76.5614C76.8911 77.2338 76.0456 77.7967 74.9027 78.1721C73.7598 78.5474 72.429 78.8445 70.7224 78.8445C68.3427 78.8445 66.5422 78.4692 65.1957 77.7029C63.8649 76.9367 62.9099 75.9984 62.3462 74.8568C61.7826 73.7153 61.3912 72.3861 61.2973 70.963C61.2033 69.54 61.1094 68.1169 61.1094 66.6782V40.047H65.4932V39.9531H65.4775Z" fill="black"/>
<path d="M84.5177 39.9531H89.1834L94.3187 53.6363L99.6419 39.9531H103.932L96.4166 57.4519L104.887 77.9844H99.9393L93.849 62.2058L87.7586 78.0782H83.4688L91.8449 58.2181L84.5177 39.9531Z" fill="black"/>
<path d="M108.594 39.9531H116.015C118.019 39.9531 119.725 40.1408 121.15 40.5161C122.481 40.8914 123.718 41.7515 124.767 42.9869C125.049 43.3622 125.33 43.7531 125.628 44.2223C125.91 44.6914 126.192 45.27 126.489 45.9268C126.771 46.5992 126.959 47.3498 127.053 48.2099C127.241 49.07 127.241 50.1177 127.241 51.2593C127.241 52.7762 127.053 54.1992 126.677 55.5441C126.301 56.8733 125.722 58.1087 124.861 59.1564C124 60.2042 122.951 60.9704 121.62 61.6272C120.289 62.1902 118.677 62.4873 116.672 62.4873H112.978V77.9844H108.594V39.9531ZM112.978 58.8749H116.594C117.455 58.8749 118.301 58.7811 119.068 58.5935C119.835 58.4058 120.493 58.0305 121.072 57.5457C121.636 56.9828 122.121 56.2165 122.403 55.2626C122.685 54.3087 122.872 52.9795 122.872 51.4626C122.872 49.5548 122.591 48.0379 122.105 46.9902C121.62 45.9424 120.962 45.1762 120.289 44.707C119.616 44.2379 118.864 43.9408 118.097 43.847C117.33 43.7531 116.766 43.7531 116.187 43.7531H112.852V58.8749H112.978Z" fill="black"/>
<path d="M134.868 39.9531V44.8009H130.578V39.9531H134.868ZM130.766 49.8519H134.664V77.9844H130.766V49.8519Z" fill="black"/>
<path d="M139.141 49.8521H142.757V54.1369C142.851 53.8554 143.039 53.3706 143.321 52.8076C143.603 52.2447 143.994 51.6661 144.464 51.1969C144.934 50.634 145.607 50.1492 146.28 49.7739C147.047 49.3986 147.893 49.2109 148.942 49.2109C150.178 49.2109 151.227 49.4924 152.089 49.9772C152.95 50.5402 153.701 51.2126 154.093 52.0727C154.562 52.9328 154.86 54.0743 154.954 55.5912C155.048 57.0142 155.048 58.5311 155.048 60.1574V78.0315H151.243V60.2044C151.243 59.3443 151.243 58.4998 151.149 57.5459C151.149 56.6858 150.961 55.9352 150.773 55.169C150.585 54.4965 150.21 53.9336 149.724 53.4644C149.255 52.9953 148.581 52.792 147.72 52.792C146.671 52.792 145.904 53.0735 145.247 53.7459C144.683 54.4183 144.198 55.169 143.916 56.029C143.634 56.983 143.446 57.9369 143.352 58.969C143.258 60.0011 143.258 60.9706 143.258 61.7212V77.9846H139.36V49.8521H139.141Z" fill="black"/>
</g>
</mask>
<g mask="url(#mask0_499_193)">
<rect x="-20.4297" y="11.0469" width="257.651" height="97.6716" fill="black"/>
</g>
<defs>
<clipPath id="clip0_499_193">
<rect width="94.0952" height="38" fill="white" transform="translate(61 40)"/>
</clipPath>
</defs>
</svg>
